<?xml version="1.0" encoding="utf-8"?>
<!-- generated by Paul whittington  -->
<svg version="1.1" id="Layer_1" xmlns="http://www.w3.org/2000/svg" xmlns:xlink="http://www.w3.org/1999/xlink" x="0px" y="0px"
	 viewBox="0 0 39.3 39.3" style="enable-background:new 0 0 39.3 39.3;" xml:space="preserve">
<style type="text/css">
	.st0{fill:#222222;stroke:rgba(0,0,0,0.25);stroke-width:8;stroke-miterlimit:10;}
	.st1{fill:#222222;stroke:#444445;stroke-width:0.3;stroke-miterlimit:10;}
	.st2{fill:#FFFFFF;}
</style>
<circle class="st0" cx="19.6" cy="19.6" r="15.6"/>
<circle class="st1" cx="19.6" cy="19.6" r="15.6"/>
<g>
	<path class="st2" d="M17.2,21.7c0.1,0.4,0.1,0.9,0,1.4c-0.2,0.5-0.5,1-1,1.5l-0.9,0.9l2.2,2.2L16,29.1l-6-6l2.4-2.4
		c0.5-0.5,1-0.8,1.5-1c0.5-0.2,1-0.2,1.4-0.1c0.5,0.1,0.9,0.4,1.2,0.8C16.9,20.9,17.1,21.3,17.2,21.7z M15.4,22.8
		c0-0.3-0.1-0.5-0.4-0.8c-0.2-0.2-0.5-0.4-0.8-0.4s-0.5,0.1-0.8,0.4l-0.8,0.8l1.5,1.5l0.8-0.8C15.2,23.3,15.4,23,15.4,22.8z"/>
	<path class="st2" d="M23.5,9.7l4.4,7.6L26.2,19l-4.9-3l3,4.9l-1.8,1.8L15,18.2l1.6-1.6l5.2,3.5l-3.3-5.4l1.6-1.6l5.4,3.3L22,11.2
		L23.5,9.7z"/>
</g>
</svg>
